<?xml version="1.0" encoding="UTF-8"?>
<svg id="FILIGRANE" xmlns="http://www.w3.org/2000/svg" xmlns:xlink="http://www.w3.org/1999/xlink" viewBox="0 0 380 218.02">
  <defs>
    <clipPath id="clippath">
      <path d="M241.61,36.98c.19-2.61.35-5.21.48-7.81-.36,2.63-.76,5.26-1.19,7.9.24-.03.47-.05.71-.08ZM244.57,36.68c.4-.03.8-.06,1.2-.09.37-4.36.66-8.72.87-13.08-.6,4.39-1.3,8.78-2.07,13.17Z" style="fill: none;"/>
    </clipPath>
    <clipPath id="clippath-1">
      <path d="M137.31,182.18c-.15,2.23-.29,4.44-.39,6.62l1.99.18c.32-2.36.68-4.75,1.07-7.14-.89.13-1.78.24-2.67.34Z" style="fill: none;"/>
    </clipPath>
    <clipPath id="clippath-2">
      <path d="M131.36-2v217.19h250.64V-2h-250.64ZM138.9,188.98l-1.99-.18c.1-2.18.24-4.39.39-6.62.89-.09,1.78-.2,2.67-.34-.39,2.39-.75,4.78-1.07,7.14ZM241.61,36.98c-.24.03-.47.05-.71.08.43-2.63.83-5.27,1.19-7.9-.12,2.6-.29,5.21-.48,7.81ZM245.77,36.6c-.4.02-.8.05-1.2.09.77-4.39,1.47-8.78,2.07-13.17-.21,4.36-.5,8.72-.87,13.08Z" style="fill: none;"/>
    </clipPath>
  </defs>
  <g>
    <g style="clip-path: url(#clippath);">
      <g>
        <path d="M316.29,94.38c-5.81-14.84,3.35-30.58,20.47-35.16,17.11-4.58,35.69,3.73,41.5,18.57,5.81,14.84-3.35,30.58-20.47,35.16-17.11,4.58-35.69-3.73-41.5-18.57Z" style="fill: #ec6a2c;"/>
        <path d="M315.27,47.82c-39.72-39.11-86.68-31.8-122.29,7.31-34.53,37.63-52.71,88.88-59.62,139.37,2.52-52.54,16.35-105.76,48.96-148.51,39.72-52.3,99.31-61.55,150.96-19.72,15.1,12.05-3.44,34.29-18.01,21.55h0Z" style="fill: #ec6a2c;"/>
        <path d="M364.5,145.63c-20.91,62.2-92.96,87.53-146.68,49.97,37.23,17.42,82.96,9.86,105.76-23.76,7.02-9.97,11.86-22.02,13.73-33.27,1.27-7.68,8.53-12.88,16.21-11.6,8.59,1.33,13.96,10.51,10.97,18.66h0Z" style="fill: #ec6a2c;"/>
        <path d="M300.44,99.9c-5.16-13.18,2.98-27.17,18.18-31.24,15.2-4.07,31.71,3.31,36.87,16.5,5.16,13.18-2.98,27.17-18.18,31.24-15.2,4.07-31.71-3.31-36.87-16.5Z" style="fill: #ec6a2c; opacity: .3;"/>
        <path d="M299.53,58.53c-35.29-34.75-77.01-28.25-108.65,6.49-30.68,33.43-46.83,78.97-52.97,123.82,2.24-46.68,14.53-93.96,43.5-131.94,35.29-46.47,88.23-54.69,134.13-17.52,13.41,10.7-3.05,30.47-16,19.14h0Z" style="fill: #ec6a2c; opacity: .3;"/>
        <path d="M343.28,145.43c-18.58,55.26-82.59,77.77-130.31,44.4,33.07,15.48,73.71,8.76,93.97-21.11,6.24-8.86,10.54-19.56,12.2-29.56,1.13-6.82,7.58-11.44,14.4-10.31,7.63,1.18,12.4,9.34,9.75,16.58h0Z" style="fill: #ec6a2c; opacity: .3;"/>
      </g>
    </g>
    <g style="clip-path: url(#clippath-1);">
      <g>
        <path d="M316.29,94.38c-5.81-14.84,3.35-30.58,20.47-35.16,17.11-4.58,35.69,3.73,41.5,18.57,5.81,14.84-3.35,30.58-20.47,35.16-17.11,4.58-35.69-3.73-41.5-18.57Z" style="fill: #ec6a2c;"/>
        <path d="M315.27,47.82c-39.72-39.11-86.68-31.8-122.29,7.31-34.53,37.63-52.71,88.88-59.62,139.37,2.52-52.54,16.35-105.76,48.96-148.51,39.72-52.3,99.31-61.55,150.96-19.72,15.1,12.05-3.44,34.29-18.01,21.55h0Z" style="fill: #ec6a2c;"/>
        <path d="M364.5,145.63c-20.91,62.2-92.96,87.53-146.68,49.97,37.23,17.42,82.96,9.86,105.76-23.76,7.02-9.97,11.86-22.02,13.73-33.27,1.27-7.68,8.53-12.88,16.21-11.6,8.59,1.33,13.96,10.51,10.97,18.66h0Z" style="fill: #ec6a2c;"/>
        <path d="M300.44,99.9c-5.16-13.18,2.98-27.17,18.18-31.24,15.2-4.07,31.71,3.31,36.87,16.5,5.16,13.18-2.98,27.17-18.18,31.24-15.2,4.07-31.71-3.31-36.87-16.5Z" style="fill: #ec6a2c; opacity: .3;"/>
        <path d="M299.53,58.53c-35.29-34.75-77.01-28.25-108.65,6.49-30.68,33.43-46.83,78.97-52.97,123.82,2.24-46.68,14.53-93.96,43.5-131.94,35.29-46.47,88.23-54.69,134.13-17.52,13.41,10.7-3.05,30.47-16,19.14h0Z" style="fill: #ec6a2c; opacity: .3;"/>
        <path d="M343.28,145.43c-18.58,55.26-82.59,77.77-130.31,44.4,33.07,15.48,73.71,8.76,93.97-21.11,6.24-8.86,10.54-19.56,12.2-29.56,1.13-6.82,7.58-11.44,14.4-10.31,7.63,1.18,12.4,9.34,9.75,16.58h0Z" style="fill: #ec6a2c; opacity: .3;"/>
      </g>
    </g>
    <g>
      <path d="M63.71,123.63c5.81,14.84-3.35,30.58-20.47,35.16-17.11,4.58-35.69-3.73-41.5-18.57-5.81-14.84,3.35-30.58,20.47-35.16,17.11-4.58,35.69,3.73,41.5,18.57Z" style="fill: #695ea3;"/>
      <path d="M64.73,170.19c39.72,39.11,86.68,31.8,122.29-7.31,34.53-37.63,52.71-88.88,59.62-139.37-2.52,52.54-16.35,105.76-48.96,148.51-39.72,52.3-99.31,61.55-150.96,19.72-15.1-12.05,3.44-34.29,18.01-21.55h0Z" style="fill: #695ea3;"/>
      <path d="M15.5,72.38C36.41,10.18,108.46-15.15,162.17,22.41,124.94,4.99,79.21,12.55,56.41,46.17c-7.02,9.97-11.86,22.02-13.73,33.27-1.27,7.68-8.53,12.88-16.21,11.6-8.59-1.33-13.96-10.51-10.97-18.66h0Z" style="fill: #695ea3;"/>
      <path d="M79.56,118.12c5.16,13.18-2.98,27.17-18.18,31.24-15.2,4.07-31.71-3.31-36.87-16.5-5.16-13.18,2.98-27.17,18.18-31.24,15.2-4.07,31.71,3.31,36.87,16.5Z" style="fill: #695ea3; opacity: .3;"/>
      <path d="M80.47,159.48c35.29,34.75,77.01,28.25,108.65-6.49,30.68-33.43,46.83-78.97,52.97-123.82-2.24,46.68-14.53,93.96-43.5,131.94-35.29,46.47-88.23,54.69-134.13,17.52-13.41-10.7,3.05-30.47,16-19.14h0Z" style="fill: #695ea3; opacity: .3;"/>
      <path d="M36.72,72.58C55.3,17.32,119.32-5.19,167.04,28.18c-33.07-15.48-73.71-8.76-93.97,21.11-6.24,8.86-10.54,19.56-12.2,29.56-1.13,6.82-7.58,11.44-14.4,10.31-7.63-1.18-12.4-9.34-9.75-16.58h0Z" style="fill: #695ea3; opacity: .3;"/>
    </g>
    <g style="clip-path: url(#clippath-2);">
      <g>
        <path d="M316.29,94.38c-5.81-14.84,3.35-30.58,20.47-35.16,17.11-4.58,35.69,3.73,41.5,18.57,5.81,14.84-3.35,30.58-20.47,35.16-17.11,4.58-35.69-3.73-41.5-18.57Z" style="fill: #ec6a2c;"/>
        <path d="M315.27,47.82c-39.72-39.11-86.68-31.8-122.29,7.31-34.53,37.63-52.71,88.88-59.62,139.37,2.52-52.54,16.35-105.76,48.96-148.51,39.72-52.3,99.31-61.55,150.96-19.72,15.1,12.05-3.44,34.29-18.01,21.55h0Z" style="fill: #ec6a2c;"/>
        <path d="M364.5,145.63c-20.91,62.2-92.96,87.53-146.68,49.97,37.23,17.42,82.96,9.86,105.76-23.76,7.02-9.97,11.86-22.02,13.73-33.27,1.27-7.68,8.53-12.88,16.21-11.6,8.59,1.33,13.96,10.51,10.97,18.66h0Z" style="fill: #ec6a2c;"/>
        <path d="M300.44,99.9c-5.16-13.18,2.98-27.17,18.18-31.24,15.2-4.07,31.71,3.31,36.87,16.5,5.16,13.18-2.98,27.17-18.18,31.24-15.2,4.07-31.71-3.31-36.87-16.5Z" style="fill: #ec6a2c; opacity: .3;"/>
        <path d="M299.53,58.53c-35.29-34.75-77.01-28.25-108.65,6.49-30.68,33.43-46.83,78.97-52.97,123.82,2.24-46.68,14.53-93.96,43.5-131.94,35.29-46.47,88.23-54.69,134.13-17.52,13.41,10.7-3.05,30.47-16,19.14h0Z" style="fill: #ec6a2c; opacity: .3;"/>
        <path d="M343.28,145.43c-18.58,55.26-82.59,77.77-130.31,44.4,33.07,15.48,73.71,8.76,93.97-21.11,6.24-8.86,10.54-19.56,12.2-29.56,1.13-6.82,7.58-11.44,14.4-10.31,7.63,1.18,12.4,9.34,9.75,16.58h0Z" style="fill: #ec6a2c; opacity: .3;"/>
      </g>
    </g>
  </g>
  <path d="M106.68,112.89c-1.82,0-3.45-1.05-4.29-2.66-.93-1.76-2.83-2.81-5.35-2.81-3.81,0-6.31,2.42-6.31,6.16v5.68h7.42c2.02,0,3.68,1.64,3.68,3.68h-11.09v27.43c0,2.22-1.79,4.03-4.01,4.03v-31.46h-3.27c-2.02,0-3.66-1.64-3.66-3.68h6.93v-6.09c0-2.04.52-3.84,1.47-5.3h-17.93c-2.36,0-4.37-1.86-4.41-4.22-.21-14.77,24.95-14.97,24.95-28.68,0-5.96-4.35-9.91-10.11-9.91-4.54,0-8.16,2.42-9.51,6.08-.74,2.01-2.66,3.36-4.8,3.36,0-3.88,1.53-7.28,4.1-9.71,2.57-2.42,6.17-3.88,10.27-3.88,8.1,0,14.32,5.68,14.32,13.92,0,16.52-25.29,16.93-25.29,29.03v.14h7.38c6.53,0,13.07-.14,19.6-.3,5.96,0,9.91,3.59,9.91,9.21Z" style="fill: #ec6a2c;"/>
  <path d="M105.68,137.49c0-10.07,7.69-17.69,17.82-17.69s17.89,7.62,17.89,17.69c0,.53-.07,1.13-.13,1.59h-31.54c.73,7.29,6.43,12.52,14.05,12.52,4.48,0,8.46-1.8,10.99-4.69,1.38-1.58,3.3-2.6,5.41-2.6h.63c-2.58,6.49-9.21,10.87-17.09,10.87-10.34,0-18.02-7.62-18.02-17.69ZM109.73,135.64h27.63c-.66-6.76-6.23-12.26-13.85-12.26s-12.92,5.1-13.78,12.26Z" style="fill: #ec6a2c;"/>
  <path d="M153.33,120.6h0v5.43c2.39-3.98,6.49-6.23,11.79-6.23,5.77,0,10.14,2.85,11.93,7.62,2.26-5.01,7.02-7.82,13.3-7.61,6.85.22,12.21,6,12.21,12.84v14.31c0,2.05,1.66,3.71,3.71,3.71h0c.29,0,.53.24.53.53v3.18h-1.26c-4.31,0-6.82-2.45-6.82-6.63v-14.03c0-5.3-4.03-9.91-9.32-10.2-6.81-.36-11.42,3.82-11.42,10.32v16.7c0,2.12-1.72,3.84-3.84,3.84h0v-20.67c0-6.16-4.04-10.2-10.14-10.2s-10.67,4.11-10.67,10.34v16.7c0,2.12-1.72,3.84-3.84,3.84h0v-29.95c0-2.12,1.72-3.84,3.84-3.84Z" style="fill: #ec6a2c;"/>
  <path d="M216.55,120.6h0v5.43c2.39-3.98,6.49-6.23,11.79-6.23,5.77,0,10.14,2.85,11.93,7.62,2.26-5.01,7.01-7.82,13.29-7.61,6.85.22,12.21,6,12.21,12.84v14.31c0,2.05,1.66,3.71,3.71,3.71h0c.29,0,.53.24.53.53v3.18h-1.26c-4.31,0-6.82-2.45-6.82-6.63v-14c0-5.6-4.51-10.24-10.11-10.25-6.38-.01-10.63,4.1-10.63,10.34v16.7c0,2.12-1.72,3.84-3.84,3.84h0v-20.67c0-6.16-4.04-10.2-10.14-10.2s-10.67,4.11-10.67,10.34v16.7c0,2.12-1.72,3.84-3.84,3.84h0v-29.95c0-2.12,1.72-3.84,3.84-3.84Z" style="fill: #ec6a2c;"/>
  <path d="M274,137.49c0-10.07,7.69-17.69,17.82-17.69s17.89,7.62,17.89,17.69c0,.53-.07,1.13-.13,1.59h-31.54c.73,7.29,6.43,12.52,14.05,12.52,4.48,0,8.46-1.8,10.99-4.69,1.38-1.58,3.3-2.6,5.41-2.6h.63c-2.58,6.49-9.21,10.87-17.09,10.87-10.34,0-18.02-7.62-18.02-17.69ZM278.04,135.64h27.63c-.66-6.76-6.23-12.26-13.85-12.26s-12.92,5.1-13.78,12.26Z" style="fill: #ec6a2c;"/>
  <path d="M315.48,145.11h.47c1.79,0,3.32,1.11,4.14,2.7,1.24,2.4,4.21,3.86,8.18,3.86,5.1,0,8.48-2.45,8.48-6.03,0-8.68-20.74-4.31-20.74-16.17,0-5.83,4.77-9.67,11.99-9.67s12.19,3.84,12.19,9.67h-.08c-1.97,0-3.65-1.16-4.67-2.84-1.26-2.07-3.96-3.32-7.51-3.32-4.77,0-7.95,2.32-7.95,5.77,0,8.55,20.74,4.17,20.74,16.17,0,5.96-4.97,9.94-12.46,9.94s-12.79-4.04-12.79-10.07Z" style="fill: #ec6a2c;"/>
  <g>
    <path d="M110.95,75.33h0v6.04c2.65-4.42,7.21-6.92,13.1-6.92,6.41,0,11.26,3.17,13.25,8.47,2.52-5.57,7.79-8.68,14.77-8.46,7.61.25,13.57,6.66,13.57,14.27v15.9c0,2.28,1.85,4.12,4.12,4.12h.59v4.12h-1.4c-4.78,0-7.58-2.72-7.58-7.36v-15.56c0-6.22-5.01-11.37-11.23-11.39-7.09-.01-11.81,4.55-11.81,11.49v18.55c0,2.36-1.91,4.27-4.27,4.27h0v-22.97c0-6.85-4.49-11.34-11.26-11.34s-11.85,4.57-11.85,11.49v18.56c0,2.36-1.91,4.27-4.27,4.27h0v-33.28c0-2.36,1.91-4.27,4.27-4.27Z" style="fill: #695ea3;"/>
    <path d="M174.85,94.1c0-11.19,8.17-19.66,19.07-19.66,7.21,0,13.03,3.68,16.2,9.5v-4.34c0-2.36,1.91-4.27,4.27-4.27h0v29.3c0,2.28,1.85,4.12,4.12,4.12h0c.33,0,.59.26.59.59v3.53h-1.4c-4.78,0-7.58-2.72-7.58-7.36v-1.25c-3.16,5.82-8.98,9.5-16.2,9.5-10.9,0-19.07-8.47-19.07-19.66ZM210.12,94.11c0-8.71-6.74-15.53-15.45-15.54s-15.4,6.69-15.4,15.53,6.63,15.53,15.39,15.53,15.46-6.7,15.46-15.53Z" style="fill: #695ea3;"/>
    <path d="M225.58,64c0-2.1,1.96-3.57,4.06-2.95,1.16.34,2.06,1.39,2.18,2.59.21,1.94-1.26,3.45-3.15,3.45-1.69,0-3.09-1.33-3.09-3.09ZM230.81,75.33h0v33.27c0,2.36-1.91,4.27-4.27,4.27h0v-33.27c0-2.36,1.91-4.27,4.27-4.27Z" style="fill: #695ea3;"/>
    <path d="M242.66,75.33h0c2.36,0,4.27,1.91,4.27,4.27v2.65c2.87-4.93,8.02-7.81,14.58-7.81,9.42,0,15.75,6.19,15.75,15.68v14.5c0,2.28,1.85,4.12,4.12,4.12h0c.33,0,.59.26.59.59v3.53h-1.47c-4.79,0-7.51-2.72-7.51-7.36v-14.13c0-7.73-5.08-12.81-12.74-12.81s-13.32,5.15-13.32,12.96v17.08c0,2.36-1.91,4.27-4.27,4.27h0v-37.54Z" style="fill: #695ea3;"/>
    <path d="M286.03,102.57h.52c1.99,0,3.69,1.23,4.6,3,1.37,2.67,4.67,4.29,9.09,4.29,5.67,0,9.42-2.72,9.42-6.7,0-9.64-23.04-4.78-23.04-17.96,0-6.48,5.3-10.75,13.32-10.75s13.55,4.27,13.55,10.75h0c-2.11,0-4.13-1.08-5.14-2.93-1.33-2.43-4.4-3.92-8.48-3.92-5.3,0-8.83,2.58-8.83,6.41,0,9.5,23.04,4.64,23.04,17.96,0,6.63-5.52,11.04-13.84,11.04s-14.21-4.49-14.21-11.19Z" style="fill: #695ea3;"/>
  </g>
  <g>
    <path d="M61.08,157.12c-7.13,0-12.52-5.21-12.52-12.15,0-4.6,2.34-8.3,6.05-10.32h-15.34c0-1.5,1.22-2.72,2.72-2.72h25.79c1.45,0,2.63-1.18,2.63-2.63h0c0-.21.17-.38.38-.38h2.25v.89c0,3.05-1.73,4.83-4.69,4.83h-.8c3.7,2.02,6.05,5.72,6.05,10.32,0,6.94-5.39,12.15-12.52,12.15ZM57.9,135.09c-2.63.71-5.51,3.55-6.25,6.17-2,7.1,2.75,13.04,9.43,13.04,5.63,0,9.9-4.22,9.9-9.8,0-6.65-5.96-11.33-13.07-9.42Z" style="fill: #695ea3;"/>
    <path d="M61.08,128.95c-7.13,0-12.52-5.44-12.52-12.61s5.39-12.66,12.52-12.66c.38,0,.8.05,1.13.09v22.32c5.16-.52,8.86-4.55,8.86-9.94,0-3.06-1.19-5.79-3.11-7.59-1.25-1.17-2.05-2.75-2.05-4.46h0c4.6,1.83,7.69,6.52,7.69,12.1,0,7.32-5.39,12.76-12.52,12.76ZM59.77,126.09v-19.56c-4.78.47-8.67,4.41-8.67,9.8s3.61,9.14,8.67,9.75Z" style="fill: #695ea3;"/>
  </g>
</svg>