<?xml version="1.0" encoding="UTF-8"?>
<svg id="FINAL_VRTC" data-name="FINAL VRTC" xmlns="http://www.w3.org/2000/svg" xmlns:xlink="http://www.w3.org/1999/xlink" viewBox="0 0 380 254.76">
  <defs>
    <clipPath id="clippath">
      <path d="M207.04,14.3c.22,2.3.38,4.62.51,6.95.21-.07.41-.13.62-.2-.33-2.26-.71-4.51-1.12-6.75Z" style="fill: none;"/>
    </clipPath>
    <clipPath id="clippath-1">
      <path d="M173.48,104.02l1.98-.28c-.11-1.18-.22-2.39-.3-3.63-.73.31-1.46.59-2.21.84.18,1.09.35,2.1.53,3.07Z" style="fill: none;"/>
    </clipPath>
    <clipPath id="clippath-2">
      <path d="M168.17-2v110.99h110.7V-2h-110.7ZM173.48,104.02c-.18-.97-.36-1.98-.53-3.07.75-.25,1.48-.54,2.21-.84.09,1.24.19,2.45.3,3.63l-1.98.28ZM207.55,21.25c-.13-2.33-.28-4.65-.51-6.95.42,2.24.79,4.49,1.12,6.75-.21.06-.41.13-.62.2Z" style="fill: none;"/>
    </clipPath>
  </defs>
  <g>
    <g style="clip-path: url(#clippath);">
      <g>
        <path d="M247.55,39.76c-4.37-6.31-1.83-14.7,5.68-18.75,7.51-4.05,17.14-2.22,21.51,4.09,4.37,6.31,1.83,14.7-5.68,18.75-7.51,4.05-17.14,2.22-21.51-4.09Z" style="fill: #ec6a2c;"/>
        <path d="M241.9,18.06c-22.95-13.91-44.15-5.27-56.49,17.01-12,21.47-14.82,47.5-12.45,71.92-4.65-24.9-4.09-51.37,6.44-75.02C192.2,3.06,219.09-7.9,247.94,5.97c8.41,3.97,2.2,16.45-6.04,12.1h0Z" style="fill: #ec6a2c;"/>
        <path d="M275.83,58.42c-2.89,31.47-33.83,51.34-63.17,39.71,19.38,4.03,39.97-4.6,46.91-22.88,2.18-5.45,3.11-11.63,2.74-17.11-.26-3.74,2.57-6.98,6.31-7.24,4.17-.33,7.71,3.37,7.21,7.52h0Z" style="fill: #ec6a2c;"/>
        <path d="M240.73,44.11c-3.88-5.6-1.62-13.06,5.05-16.66,6.67-3.6,15.23-1.97,19.11,3.63,3.88,5.6,1.62,13.06-5.05,16.66-6.67,3.6-15.23,1.97-19.11-3.63Z" style="fill: #ec6a2c; opacity: .3;"/>
        <path d="M235.71,24.83c-20.39-12.36-39.22-4.68-50.19,15.11-10.66,19.07-13.17,42.2-11.06,63.9-4.14-22.12-3.63-45.64,5.72-66.65,11.37-25.69,35.26-35.42,60.9-23.11,7.47,3.52,1.95,14.61-5.37,10.75h0Z" style="fill: #ec6a2c; opacity: .3;"/>
        <path d="M265.86,60.68c-2.57,27.96-30.06,45.61-56.12,35.28,17.22,3.58,35.51-4.08,41.68-20.33,1.94-4.84,2.77-10.34,2.43-15.2-.23-3.32,2.28-6.2,5.6-6.43,3.71-.29,6.85,3,6.41,6.68h0Z" style="fill: #ec6a2c; opacity: .3;"/>
      </g>
    </g>
    <g style="clip-path: url(#clippath-1);">
      <g>
        <path d="M247.55,39.76c-4.37-6.31-1.83-14.7,5.68-18.75,7.51-4.05,17.14-2.22,21.51,4.09,4.37,6.31,1.83,14.7-5.68,18.75-7.51,4.05-17.14,2.22-21.51-4.09Z" style="fill: #ec6a2c;"/>
        <path d="M241.9,18.06c-22.95-13.91-44.15-5.27-56.49,17.01-12,21.47-14.82,47.5-12.45,71.92-4.65-24.9-4.09-51.37,6.44-75.02C192.2,3.06,219.09-7.9,247.94,5.97c8.41,3.97,2.2,16.45-6.04,12.1h0Z" style="fill: #ec6a2c;"/>
        <path d="M275.83,58.42c-2.89,31.47-33.83,51.34-63.17,39.71,19.38,4.03,39.97-4.6,46.91-22.88,2.18-5.45,3.11-11.63,2.74-17.11-.26-3.74,2.57-6.98,6.31-7.24,4.17-.33,7.71,3.37,7.21,7.52h0Z" style="fill: #ec6a2c;"/>
        <path d="M240.73,44.11c-3.88-5.6-1.62-13.06,5.05-16.66,6.67-3.6,15.23-1.97,19.11,3.63,3.88,5.6,1.62,13.06-5.05,16.66-6.67,3.6-15.23,1.97-19.11-3.63Z" style="fill: #ec6a2c; opacity: .3;"/>
        <path d="M235.71,24.83c-20.39-12.36-39.22-4.68-50.19,15.11-10.66,19.07-13.17,42.2-11.06,63.9-4.14-22.12-3.63-45.64,5.72-66.65,11.37-25.69,35.26-35.42,60.9-23.11,7.47,3.52,1.95,14.61-5.37,10.75h0Z" style="fill: #ec6a2c; opacity: .3;"/>
        <path d="M265.86,60.68c-2.57,27.96-30.06,45.61-56.12,35.28,17.22,3.58,35.51-4.08,41.68-20.33,1.94-4.84,2.77-10.34,2.43-15.2-.23-3.32,2.28-6.2,5.6-6.43,3.71-.29,6.85,3,6.41,6.68h0Z" style="fill: #ec6a2c; opacity: .3;"/>
      </g>
    </g>
    <g>
      <path d="M132.45,81.53c4.37,6.31,1.83,14.7-5.68,18.75-7.51,4.05-17.14,2.22-21.51-4.09-4.37-6.31-1.83-14.7,5.68-18.75,7.51-4.05,17.14-2.22,21.51,4.09Z" style="fill: #695ea3;"/>
      <path d="M138.1,103.23c22.95,13.91,44.15,5.27,56.49-17.01,12-21.47,14.82-47.5,12.45-71.92,4.65,24.9,4.09,51.37-6.44,75.02-12.8,28.92-39.69,39.87-68.54,26.01-8.41-3.97-2.2-16.45,6.04-12.1h0Z" style="fill: #695ea3;"/>
      <path d="M104.17,62.87c2.89-31.47,33.83-51.34,63.17-39.71-19.38-4.03-39.97,4.6-46.91,22.88-2.18,5.45-3.11,11.63-2.74,17.11.26,3.74-2.57,6.98-6.31,7.24-4.17.33-7.71-3.37-7.21-7.52h0Z" style="fill: #695ea3;"/>
      <path d="M139.27,77.18c3.88,5.6,1.62,13.06-5.05,16.66-6.67,3.6-15.23,1.97-19.11-3.63-3.88-5.6-1.62-13.06,5.05-16.66,6.67-3.6,15.23-1.97,19.11,3.63Z" style="fill: #695ea3; opacity: .3;"/>
      <path d="M144.29,96.46c20.39,12.36,39.22,4.68,50.19-15.11,10.66-19.07,13.17-42.2,11.06-63.9,4.14,22.12,3.63,45.64-5.72,66.65-11.37,25.69-35.26,35.42-60.9,23.11-7.47-3.52-1.95-14.61,5.37-10.75h0Z" style="fill: #695ea3; opacity: .3;"/>
      <path d="M114.14,60.61c2.57-27.96,30.06-45.61,56.12-35.28-17.22-3.58-35.51,4.08-41.68,20.33-1.94,4.84-2.77,10.34-2.43,15.2.23,3.32-2.28,6.2-5.6,6.43-3.71.29-6.85-3-6.41-6.68h0Z" style="fill: #695ea3; opacity: .3;"/>
    </g>
    <g style="clip-path: url(#clippath-2);">
      <g>
        <path d="M247.55,39.76c-4.37-6.31-1.83-14.7,5.68-18.75,7.51-4.05,17.14-2.22,21.51,4.09,4.37,6.31,1.83,14.7-5.68,18.75-7.51,4.05-17.14,2.22-21.51-4.09Z" style="fill: #ec6a2c;"/>
        <path d="M241.9,18.06c-22.95-13.91-44.15-5.27-56.49,17.01-12,21.47-14.82,47.5-12.45,71.92-4.65-24.9-4.09-51.37,6.44-75.02C192.2,3.06,219.09-7.9,247.94,5.97c8.41,3.97,2.2,16.45-6.04,12.1h0Z" style="fill: #ec6a2c;"/>
        <path d="M275.83,58.42c-2.89,31.47-33.83,51.34-63.17,39.71,19.38,4.03,39.97-4.6,46.91-22.88,2.18-5.45,3.11-11.63,2.74-17.11-.26-3.74,2.57-6.98,6.31-7.24,4.17-.33,7.71,3.37,7.21,7.52h0Z" style="fill: #ec6a2c;"/>
        <path d="M240.73,44.11c-3.88-5.6-1.62-13.06,5.05-16.66,6.67-3.6,15.23-1.97,19.11,3.63,3.88,5.6,1.62,13.06-5.05,16.66-6.67,3.6-15.23,1.97-19.11-3.63Z" style="fill: #ec6a2c; opacity: .3;"/>
        <path d="M235.71,24.83c-20.39-12.36-39.22-4.68-50.19,15.11-10.66,19.07-13.17,42.2-11.06,63.9-4.14-22.12-3.63-45.64,5.72-66.65,11.37-25.69,35.26-35.42,60.9-23.11,7.47,3.52,1.95,14.61-5.37,10.75h0Z" style="fill: #ec6a2c; opacity: .3;"/>
        <path d="M265.86,60.68c-2.57,27.96-30.06,45.61-56.12,35.28,17.22,3.58,35.51-4.08,41.68-20.33,1.94-4.84,2.77-10.34,2.43-15.2-.23-3.32,2.28-6.2,5.6-6.43,3.71-.29,6.85,3,6.41,6.68h0Z" style="fill: #ec6a2c; opacity: .3;"/>
      </g>
    </g>
  </g>
  <g>
    <path d="M84.97,199.01c-2.3,0-4.35-1.32-5.4-3.35-1.17-2.22-3.56-3.54-6.74-3.54-4.81,0-7.95,3.05-7.95,7.76v7.16h9.35c2.55,0,4.64,2.07,4.64,4.64h-13.99v34.58c0,2.8-2.26,5.08-5.06,5.08v-39.66h-4.12c-2.55,0-4.62-2.07-4.62-4.64h8.74v-7.68c0-2.57.65-4.85,1.86-6.69h-22.61c-2.98,0-5.51-2.35-5.55-5.32-.26-18.62,31.46-18.88,31.46-36.15,0-7.51-5.48-12.49-12.74-12.49-5.73,0-10.29,3.05-11.99,7.66-.94,2.53-3.35,4.23-6.05,4.23,0-4.89,1.93-9.18,5.17-12.24,3.24-3.05,7.78-4.89,12.95-4.89,10.21,0,18.05,7.16,18.05,17.55,0,20.82-31.88,21.34-31.88,36.59v.17h9.3c8.23,0,16.47-.17,24.7-.38,7.51,0,12.49,4.52,12.49,11.61Z" style="fill: #ec6a2c;"/>
    <path d="M83.71,230.02c0-12.69,9.69-22.3,22.47-22.3s22.55,9.61,22.55,22.3c0,.67-.08,1.42-.17,2.01h-39.76c.92,9.19,8.1,15.79,17.71,15.79,5.64,0,10.67-2.27,13.86-5.92,1.75-1.99,4.17-3.27,6.82-3.27h.79c-3.26,8.19-11.61,13.7-21.55,13.7-13.03,0-22.72-9.6-22.72-22.3ZM88.81,227.68h34.83c-.83-8.52-7.85-15.45-17.46-15.45s-16.29,6.43-17.37,15.45Z" style="fill: #ec6a2c;"/>
    <path d="M143.77,208.73h0v6.85c3.01-5.01,8.19-7.85,14.87-7.85,7.27,0,12.78,3.59,15.03,9.61,2.85-6.32,8.84-9.85,16.76-9.59,8.63.28,15.4,7.56,15.4,16.19v18.04c0,2.58,2.09,4.68,4.68,4.68h0c.37,0,.67.3.67.67v4.01h-1.59c-5.43,0-8.6-3.09-8.6-8.35v-17.69c0-6.68-5.08-12.5-11.75-12.86-8.59-.46-14.39,4.82-14.39,13v21.05c0,2.67-2.17,4.84-4.84,4.84h0v-26.06c0-7.77-5.1-12.86-12.78-12.86s-13.45,5.18-13.45,13.03v21.05c0,2.68-2.17,4.84-4.84,4.84h0v-37.75c0-2.68,2.17-4.84,4.84-4.84Z" style="fill: #ec6a2c;"/>
    <path d="M223.46,208.73h0v6.85c3.01-5.01,8.19-7.85,14.87-7.85,7.27,0,12.78,3.59,15.03,9.61,2.85-6.31,8.84-9.85,16.76-9.59,8.63.28,15.4,7.56,15.4,16.19v18.04c0,2.58,2.09,4.68,4.68,4.68h0c.37,0,.67.3.67.67v4.01h-1.59c-5.43,0-8.6-3.09-8.6-8.35v-17.65c0-7.06-5.68-12.9-12.74-12.92-8.04-.02-13.4,5.17-13.4,13.03v21.05c0,2.67-2.17,4.84-4.84,4.84h0v-26.06c0-7.77-5.1-12.86-12.78-12.86s-13.45,5.18-13.45,13.03v21.05c0,2.68-2.17,4.84-4.84,4.84h0v-37.75c0-2.68,2.17-4.84,4.84-4.84Z" style="fill: #ec6a2c;"/>
    <path d="M295.88,230.02c0-12.69,9.69-22.3,22.47-22.3s22.55,9.61,22.55,22.3c0,.67-.08,1.42-.17,2.01h-39.76c.92,9.19,8.1,15.79,17.71,15.79,5.64,0,10.67-2.27,13.86-5.92,1.75-1.99,4.17-3.27,6.82-3.27h.79c-3.26,8.19-11.61,13.7-21.55,13.7-13.03,0-22.72-9.6-22.72-22.3ZM300.98,227.68h34.83c-.83-8.52-7.85-15.45-17.46-15.45s-16.29,6.43-17.37,15.45Z" style="fill: #ec6a2c;"/>
    <path d="M348.18,239.63h.59c2.26,0,4.18,1.4,5.22,3.41,1.56,3.03,5.3,4.86,10.31,4.86,6.43,0,10.69-3.09,10.69-7.6,0-10.94-26.14-5.43-26.14-20.38,0-7.35,6.01-12.2,15.12-12.2s15.37,4.85,15.37,12.2h-.1c-2.48,0-4.6-1.47-5.89-3.59-1.58-2.61-4.99-4.18-9.47-4.18-6.01,0-10.02,2.93-10.02,7.27,0,10.77,26.14,5.26,26.14,20.38,0,7.52-6.26,12.53-15.7,12.53s-16.12-5.09-16.12-12.69Z" style="fill: #ec6a2c;"/>
    <g>
      <path d="M90.35,151.67h0v7.61c3.34-5.57,9.09-8.72,16.52-8.72,8.07,0,14.2,3.99,16.71,10.67,3.17-7.02,9.83-10.95,18.62-10.66,9.59.31,17.11,8.4,17.11,17.99v20.04c0,2.87,2.33,5.2,5.2,5.2h.74v5.2h-1.76c-6.03,0-9.56-3.43-9.56-9.28v-19.61c0-7.85-6.31-14.34-14.16-14.35-8.93-.02-14.89,5.74-14.89,14.48v23.39c0,2.97-2.41,5.38-5.38,5.38h0v-28.95c0-8.63-5.66-14.29-14.2-14.29s-14.94,5.76-14.94,14.48v23.39c0,2.97-2.41,5.38-5.38,5.38h0v-41.95c0-2.97,2.41-5.38,5.38-5.38Z" style="fill: #695ea3;"/>
      <path d="M170.91,175.33c0-14.11,10.3-24.78,24.04-24.78,9.09,0,16.43,4.64,20.42,11.97v-5.47c0-2.97,2.41-5.38,5.38-5.38h0v36.93c0,2.87,2.33,5.2,5.2,5.2h0c.41,0,.74.33.74.74v4.46h-1.76c-6.03,0-9.56-3.43-9.56-9.28v-1.58c-3.99,7.33-11.32,11.97-20.42,11.97-13.74,0-24.04-10.67-24.04-24.78ZM215.36,175.34c0-10.98-8.49-19.58-19.47-19.59-11.05,0-19.41,8.44-19.41,19.58s8.35,19.58,19.4,19.58,19.48-8.44,19.49-19.57Z" style="fill: #695ea3;"/>
      <path d="M234.86,137.37c0-2.64,2.48-4.5,5.11-3.72,1.46.43,2.59,1.75,2.75,3.26.26,2.45-1.59,4.35-3.97,4.35-2.13,0-3.9-1.67-3.9-3.9ZM241.44,151.67h0v41.95c0,2.97-2.41,5.38-5.38,5.38h0v-41.95c0-2.97,2.41-5.38,5.38-5.38Z" style="fill: #695ea3;"/>
      <path d="M256.39,151.67h0c2.97,0,5.38,2.41,5.38,5.38v3.34c3.62-6.22,10.12-9.84,18.37-9.84,11.88,0,19.86,7.8,19.86,19.77v18.28c0,2.87,2.33,5.2,5.2,5.2h0c.41,0,.74.33.74.74v4.46h-1.86c-6.03,0-9.47-3.43-9.47-9.28v-17.82c0-9.74-6.4-16.15-16.06-16.15s-16.8,6.5-16.8,16.33v21.53c0,2.97-2.41,5.38-5.38,5.38h0v-47.33Z" style="fill: #695ea3;"/>
      <path d="M311.05,186h.66c2.51,0,4.65,1.55,5.8,3.78,1.73,3.37,5.89,5.4,11.46,5.4,7.15,0,11.88-3.43,11.88-8.44,0-12.16-29.05-6.03-29.05-22.64,0-8.17,6.68-13.55,16.8-13.55s17.08,5.38,17.08,13.55h0c-2.66,0-5.21-1.36-6.48-3.69-1.68-3.07-5.55-4.94-10.69-4.94-6.68,0-11.14,3.25-11.14,8.08,0,11.97,29.05,5.84,29.05,22.64,0,8.35-6.96,13.92-17.45,13.92s-17.91-5.66-17.91-14.11Z" style="fill: #695ea3;"/>
    </g>
    <g>
      <path d="M27.49,254.76c-8.98,0-15.78-6.56-15.78-15.31,0-5.79,2.96-10.46,7.63-13.01H0c0-1.89,1.54-3.43,3.43-3.43h32.51c1.83,0,3.31-1.48,3.31-3.31h0c0-.26.21-.47.47-.47h2.84v1.12c0,3.84-2.19,6.09-5.91,6.09h-1c4.67,2.54,7.62,7.21,7.62,13.01,0,8.75-6.8,15.31-15.78,15.31ZM23.48,226.99c-3.32.89-6.95,4.48-7.88,7.78-2.53,8.95,3.47,16.44,11.89,16.44,7.09,0,12.47-5.32,12.47-12.35,0-8.38-7.51-14.29-16.48-11.87Z" style="fill: #695ea3;"/>
      <path d="M27.49,219.25c-8.98,0-15.78-6.86-15.78-15.9s6.8-15.96,15.78-15.96c.47,0,1,.06,1.42.12v28.14c6.5-.65,11.17-5.73,11.17-12.53,0-3.86-1.5-7.3-3.92-9.57-1.58-1.48-2.58-3.46-2.58-5.62h0c5.8,2.31,9.7,8.22,9.7,15.25,0,9.22-6.8,16.08-15.78,16.08ZM25.83,215.65v-24.65c-6.03.59-10.93,5.56-10.93,12.36s4.55,11.53,10.93,12.3Z" style="fill: #695ea3;"/>
    </g>
  </g>
</svg>