<?xml version="1.0" encoding="UTF-8"?>
<svg id="FINAL_HRZ" data-name="FINAL HRZ" xmlns="http://www.w3.org/2000/svg" xmlns:xlink="http://www.w3.org/1999/xlink" viewBox="0 0 380 100.8">
  <defs>
    <clipPath id="clippath">
      <path d="M323.7,48.18c.43,1.06,1.96,3.44.02,3.91-.79.19-1.72-.17-2.37-.62-.52-.36-.93-.96-.62-1.62.39-.85,1.85-1.58,2.71-1.82.14-.04.64-.09.27.15.43,1.06.37-.24,0,0Z" style="fill: none;"/>
    </clipPath>
    <clipPath id="clippath-1">
      <path d="M359.36,47.51c1.44,2.06,2.55,4.12,5.32,3.58,3.37-.66,6.02-3.16,4.89-6.7s-2.82-3.48-5.62-1.64c-1.36.9-4.82,2.77-4.59,4.76,1.44,2.06-.23-2,0,0Z" style="fill: none;"/>
    </clipPath>
  </defs>
  <g>
    <g style="clip-path: url(#clippath);">
      <g>
        <path d="M325.12,28.3c-2.05,3.1-6.28,3.47-9.45.83-3.17-2.65-4.09-7.3-2.04-10.41,2.05-3.1,6.28-3.47,9.45-.83,3.17,2.65,4.09,7.3,2.04,10.41Z" style="fill: #ec6a2c;"/>
        <path d="M316.38,34.75c-2.11,12.83,5.59,20.8,17.84,22.33,11.82,1.52,24.03-1.9,34.58-7.38-10.35,6.58-22.36,11.1-34.89,10.64-15.31-.54-25.09-10.65-24.06-26.12.27-4.5,7-3.96,6.53.54h0Z" style="fill: #ec6a2c;"/>
        <path d="M328.41,12.21c14.67-4.38,29.18,5.95,29.25,21.24-1.69-9.44-9.28-17.14-18.75-16.97-2.84,0-5.79.7-8.19,1.86-1.64.79-3.6.11-4.39-1.53-.9-1.82.13-4.07,2.08-4.6h0Z" style="fill: #ec6a2c;"/>
        <path d="M328.31,30.58c-1.82,2.76-5.58,3.08-8.4.73-2.82-2.35-3.63-6.49-1.81-9.25,1.82-2.76,5.58-3.08,8.4-.73,2.82,2.35,3.63,6.49,1.81,9.25Z" style="fill: #ec6a2c; opacity: .3;"/>
        <path d="M320.54,36.31c-1.88,11.4,4.97,18.48,15.85,19.84,10.5,1.35,21.35-1.69,30.72-6.55-9.2,5.85-19.86,9.87-31,9.45-13.6-.48-22.29-9.47-21.37-23.21.24-4,6.22-3.51,5.8.48h0Z" style="fill: #ec6a2c; opacity: .3;"/>
        <path d="M331.22,16.29c13.03-3.89,25.93,5.29,25.98,18.87-1.5-8.39-8.24-15.23-16.66-15.07-2.53,0-5.15.62-7.27,1.65-1.45.7-3.2.09-3.9-1.36-.8-1.61.11-3.62,1.85-4.09h0Z" style="fill: #ec6a2c; opacity: .3;"/>
      </g>
      <g>
        <path d="M364.66,72.51c2.05-3.1,6.28-3.47,9.45-.83,3.17,2.65,4.09,7.3,2.04,10.41-2.05,3.1-6.28,3.47-9.45.83-3.17-2.65-4.09-7.3-2.04-10.41Z" style="fill: #695ea3;"/>
        <path d="M373.4,66.05c2.11-12.83-5.59-20.8-17.84-22.33-11.82-1.52-24.03,1.9-34.58,7.38,10.35-6.58,22.36-11.1,34.89-10.64,15.31.54,25.09,10.65,24.06,26.12-.27,4.5-7,3.96-6.53-.54h0Z" style="fill: #695ea3;"/>
        <path d="M361.37,88.59c-14.67,4.38-29.18-5.95-29.25-21.24,1.69,9.44,9.28,17.14,18.75,16.97,2.84,0,5.79-.7,8.19-1.86,1.64-.79,3.6-.11,4.39,1.53.9,1.82-.13,4.07-2.08,4.6h0Z" style="fill: #695ea3;"/>
        <path d="M361.48,70.23c1.82-2.76,5.58-3.08,8.4-.73,2.82,2.35,3.63,6.49,1.81,9.25-1.82,2.76-5.58,3.08-8.4.73-2.82-2.35-3.63-6.49-1.81-9.25Z" style="fill: #695ea3; opacity: .3;"/>
        <path d="M369.24,64.49c1.88-11.4-4.97-18.48-15.85-19.84-10.5-1.35-21.35,1.69-30.72,6.55,9.2-5.85,19.86-9.87,31-9.45,13.6.48,22.29,9.47,21.37,23.21-.24,4-6.22,3.51-5.8-.48h0Z" style="fill: #695ea3; opacity: .3;"/>
        <path d="M358.56,84.52c-13.03,3.89-25.93-5.29-25.98-18.87,1.5,8.39,8.24,15.23,16.66,15.07,2.53,0,5.15-.62,7.27-1.65,1.45-.7,3.2-.09,3.9,1.36.8,1.61-.11,3.62-1.85,4.09h0Z" style="fill: #695ea3; opacity: .3;"/>
      </g>
    </g>
    <g style="clip-path: url(#clippath-1);">
      <g>
        <path d="M325.12,28.3c-2.05,3.1-6.28,3.47-9.45.83-3.17-2.65-4.09-7.3-2.04-10.41,2.05-3.1,6.28-3.47,9.45-.83,3.17,2.65,4.09,7.3,2.04,10.41Z" style="fill: #ec6a2c;"/>
        <path d="M316.38,34.75c-2.11,12.83,5.59,20.8,17.84,22.33,11.82,1.52,24.03-1.9,34.58-7.38-10.35,6.58-22.36,11.1-34.89,10.64-15.31-.54-25.09-10.65-24.06-26.12.27-4.5,7-3.96,6.53.54h0Z" style="fill: #ec6a2c;"/>
        <path d="M328.41,12.21c14.67-4.38,29.18,5.95,29.25,21.24-1.69-9.44-9.28-17.14-18.75-16.97-2.84,0-5.79.7-8.19,1.86-1.64.79-3.6.11-4.39-1.53-.9-1.82.13-4.07,2.08-4.6h0Z" style="fill: #ec6a2c;"/>
        <path d="M328.31,30.58c-1.82,2.76-5.58,3.08-8.4.73-2.82-2.35-3.63-6.49-1.81-9.25,1.82-2.76,5.58-3.08,8.4-.73,2.82,2.35,3.63,6.49,1.81,9.25Z" style="fill: #ec6a2c; opacity: .3;"/>
        <path d="M320.54,36.31c-1.88,11.4,4.97,18.48,15.85,19.84,10.5,1.35,21.35-1.69,30.72-6.55-9.2,5.85-19.86,9.87-31,9.45-13.6-.48-22.29-9.47-21.37-23.21.24-4,6.22-3.51,5.8.48h0Z" style="fill: #ec6a2c; opacity: .3;"/>
        <path d="M331.22,16.29c13.03-3.89,25.93,5.29,25.98,18.87-1.5-8.39-8.24-15.23-16.66-15.07-2.53,0-5.15.62-7.27,1.65-1.45.7-3.2.09-3.9-1.36-.8-1.61.11-3.62,1.85-4.09h0Z" style="fill: #ec6a2c; opacity: .3;"/>
      </g>
      <g>
        <path d="M364.66,72.51c2.05-3.1,6.28-3.47,9.45-.83,3.17,2.65,4.09,7.3,2.04,10.41-2.05,3.1-6.28,3.47-9.45.83-3.17-2.65-4.09-7.3-2.04-10.41Z" style="fill: #695ea3;"/>
        <path d="M373.4,66.05c2.11-12.83-5.59-20.8-17.84-22.33-11.82-1.52-24.03,1.9-34.58,7.38,10.35-6.58,22.36-11.1,34.89-10.64,15.31.54,25.09,10.65,24.06,26.12-.27,4.5-7,3.96-6.53-.54h0Z" style="fill: #695ea3;"/>
        <path d="M361.37,88.59c-14.67,4.38-29.18-5.95-29.25-21.24,1.69,9.44,9.28,17.14,18.75,16.97,2.84,0,5.79-.7,8.19-1.86,1.64-.79,3.6-.11,4.39,1.53.9,1.82-.13,4.07-2.08,4.6h0Z" style="fill: #695ea3;"/>
        <path d="M361.48,70.23c1.82-2.76,5.58-3.08,8.4-.73,2.82,2.35,3.63,6.49,1.81,9.25-1.82,2.76-5.58,3.08-8.4.73-2.82-2.35-3.63-6.49-1.81-9.25Z" style="fill: #695ea3; opacity: .3;"/>
        <path d="M369.24,64.49c1.88-11.4-4.97-18.48-15.85-19.84-10.5-1.35-21.35,1.69-30.72,6.55,9.2-5.85,19.86-9.87,31-9.45,13.6.48,22.29,9.47,21.37,23.21-.24,4-6.22,3.51-5.8-.48h0Z" style="fill: #695ea3; opacity: .3;"/>
        <path d="M358.56,84.52c-13.03,3.89-25.93-5.29-25.98-18.87,1.5,8.39,8.24,15.23,16.66,15.07,2.53,0,5.15-.62,7.27-1.65,1.45-.7,3.2-.09,3.9,1.36.8,1.61-.11,3.62-1.85,4.09h0Z" style="fill: #695ea3; opacity: .3;"/>
      </g>
    </g>
    <g>
      <path d="M364.66,72.51c2.05-3.1,6.28-3.47,9.45-.83,3.17,2.65,4.09,7.3,2.04,10.41-2.05,3.1-6.28,3.47-9.45.83-3.17-2.65-4.09-7.3-2.04-10.41Z" style="fill: #695ea3;"/>
      <path d="M373.4,66.05c2.11-12.83-5.59-20.8-17.84-22.33-11.82-1.52-24.03,1.9-34.58,7.38,10.35-6.58,22.36-11.1,34.89-10.64,15.31.54,25.09,10.65,24.06,26.12-.27,4.5-7,3.96-6.53-.54h0Z" style="fill: #695ea3;"/>
      <path d="M361.37,88.59c-14.67,4.38-29.18-5.95-29.25-21.24,1.69,9.44,9.28,17.14,18.75,16.97,2.84,0,5.79-.7,8.19-1.86,1.64-.79,3.6-.11,4.39,1.53.9,1.82-.13,4.07-2.08,4.6h0Z" style="fill: #695ea3;"/>
      <path d="M361.48,70.23c1.82-2.76,5.58-3.08,8.4-.73,2.82,2.35,3.63,6.49,1.81,9.25-1.82,2.76-5.58,3.08-8.4.73-2.82-2.35-3.63-6.49-1.81-9.25Z" style="fill: #695ea3; opacity: .3;"/>
      <path d="M369.24,64.49c1.88-11.4-4.97-18.48-15.85-19.84-10.5-1.35-21.35,1.69-30.72,6.55,9.2-5.85,19.86-9.87,31-9.45,13.6.48,22.29,9.47,21.37,23.21-.24,4-6.22,3.51-5.8-.48h0Z" style="fill: #695ea3; opacity: .3;"/>
      <path d="M358.56,84.52c-13.03,3.89-25.93-5.29-25.98-18.87,1.5,8.39,8.24,15.23,16.66,15.07,2.53,0,5.15-.62,7.27-1.65,1.45-.7,3.2-.09,3.9,1.36.8,1.61-.11,3.62-1.85,4.09h0Z" style="fill: #695ea3; opacity: .3;"/>
    </g>
    <g>
      <path d="M325.12,28.3c-2.05,3.1-6.28,3.47-9.45.83-3.17-2.65-4.09-7.3-2.04-10.41,2.05-3.1,6.28-3.47,9.45-.83,3.17,2.65,4.09,7.3,2.04,10.41Z" style="fill: #ec6a2c;"/>
      <path d="M316.38,34.75c-2.11,12.83,5.59,20.8,17.84,22.33,11.82,1.52,24.03-1.9,34.58-7.38-10.35,6.58-22.36,11.1-34.89,10.64-15.31-.54-25.09-10.65-24.06-26.12.27-4.5,7-3.96,6.53.54h0Z" style="fill: #ec6a2c;"/>
      <path d="M328.41,12.21c14.67-4.38,29.18,5.95,29.25,21.24-1.69-9.44-9.28-17.14-18.75-16.97-2.84,0-5.79.7-8.19,1.86-1.64.79-3.6.11-4.39-1.53-.9-1.82.13-4.07,2.08-4.6h0Z" style="fill: #ec6a2c;"/>
      <path d="M328.31,30.58c-1.82,2.76-5.58,3.08-8.4.73-2.82-2.35-3.63-6.49-1.81-9.25,1.82-2.76,5.58-3.08,8.4-.73,2.82,2.35,3.63,6.49,1.81,9.25Z" style="fill: #ec6a2c; opacity: .3;"/>
      <path d="M320.54,36.31c-1.88,11.4,4.97,18.48,15.85,19.84,10.5,1.35,21.35-1.69,30.72-6.55-9.2,5.85-19.86,9.87-31,9.45-13.6-.48-22.29-9.47-21.37-23.21.24-4,6.22-3.51,5.8.48h0Z" style="fill: #ec6a2c; opacity: .3;"/>
      <path d="M331.22,16.29c13.03-3.89,25.93,5.29,25.98,18.87-1.5-8.39-8.24-15.23-16.66-15.07-2.53,0-5.15.62-7.27,1.65-1.45.7-3.2.09-3.9-1.36-.8-1.61.11-3.62,1.85-4.09h0Z" style="fill: #ec6a2c; opacity: .3;"/>
    </g>
  </g>
  <g>
    <path d="M70.62,54.47c-1.91,0-3.61-1.1-4.49-2.79-.97-1.85-2.96-2.95-5.6-2.95-4,0-6.61,2.53-6.61,6.45v5.95h7.77c2.12,0,3.85,1.72,3.85,3.85h-11.62v28.74c0,2.32-1.88,4.22-4.2,4.22v-32.96h-3.42c-2.12,0-3.84-1.72-3.84-3.85h7.26v-6.38c0-2.13.54-4.03,1.54-5.56h-18.79c-2.47,0-4.58-1.95-4.62-4.43-.22-15.47,26.14-15.69,26.14-30.05,0-6.24-4.55-10.38-10.59-10.38-4.76,0-8.55,2.53-9.97,6.37-.78,2.1-2.79,3.52-5.03,3.52,0-4.06,1.61-7.63,4.3-10.17,2.69-2.53,6.46-4.06,10.76-4.06,8.49,0,15,5.95,15,14.58,0,17.31-26.49,17.74-26.49,30.41v.14h7.73c6.84,0,13.69-.14,20.53-.32,6.24,0,10.38,3.76,10.38,9.65Z" style="fill: #ec6a2c;"/>
    <path d="M69.57,80.24c0-10.55,8.05-18.53,18.67-18.53s18.74,7.98,18.74,18.53c0,.56-.07,1.18-.14,1.67h-33.04c.76,7.64,6.73,13.12,14.72,13.12,4.69,0,8.87-1.89,11.52-4.92,1.45-1.66,3.46-2.72,5.66-2.72h.66c-2.71,6.8-9.65,11.38-17.91,11.38-10.83,0-18.88-7.98-18.88-18.53ZM73.81,78.3h28.95c-.69-7.08-6.53-12.84-14.51-12.84s-13.54,5.34-14.44,12.84Z" style="fill: #ec6a2c;"/>
    <path d="M119.49,62.54h0v5.69c2.5-4.17,6.8-6.53,12.36-6.53,6.04,0,10.62,2.99,12.5,7.98,2.37-5.25,7.35-8.19,13.93-7.97,7.17.24,12.8,6.28,12.8,13.46v14.99c0,2.15,1.74,3.89,3.89,3.89h0c.31,0,.56.25.56.56v3.33h-1.32c-4.51,0-7.15-2.57-7.15-6.94v-14.7c0-5.55-4.22-10.39-9.77-10.68-7.14-.38-11.96,4.01-11.96,10.81v17.49c0,2.22-1.8,4.03-4.03,4.03h0v-21.66c0-6.46-4.23-10.69-10.62-10.69s-11.18,4.3-11.18,10.83v17.49c0,2.22-1.8,4.03-4.03,4.03h0v-31.37c0-2.22,1.8-4.03,4.03-4.03Z" style="fill: #ec6a2c;"/>
    <path d="M185.72,62.54h0v5.69c2.5-4.17,6.8-6.53,12.36-6.53,6.04,0,10.62,2.99,12.5,7.98,2.37-5.25,7.35-8.19,13.93-7.97,7.17.23,12.8,6.28,12.8,13.46v14.99c0,2.15,1.74,3.89,3.89,3.89h0c.31,0,.56.25.56.56v3.33h-1.32c-4.51,0-7.15-2.57-7.15-6.94v-14.67c0-5.87-4.72-10.72-10.59-10.74-6.68-.01-11.14,4.29-11.14,10.83v17.49c0,2.22-1.8,4.03-4.03,4.03h0v-21.66c0-6.46-4.23-10.69-10.62-10.69s-11.18,4.3-11.18,10.83v17.49c0,2.22-1.8,4.03-4.03,4.03h0v-31.37c0-2.22,1.8-4.03,4.03-4.03Z" style="fill: #ec6a2c;"/>
    <path d="M245.91,80.24c0-10.55,8.05-18.53,18.67-18.53s18.74,7.98,18.74,18.53c0,.56-.07,1.18-.14,1.67h-33.04c.76,7.64,6.73,13.12,14.72,13.12,4.69,0,8.87-1.89,11.52-4.92,1.45-1.66,3.46-2.72,5.66-2.72h.66c-2.71,6.8-9.65,11.38-17.91,11.38-10.83,0-18.88-7.98-18.88-18.53ZM250.14,78.3h28.95c-.69-7.08-6.53-12.84-14.51-12.84s-13.54,5.34-14.44,12.84Z" style="fill: #ec6a2c;"/>
    <path d="M289.37,88.23h.49c1.88,0,3.48,1.16,4.34,2.83,1.3,2.52,4.41,4.04,8.57,4.04,5.35,0,8.89-2.57,8.89-6.32,0-9.09-21.73-4.51-21.73-16.94,0-6.11,5-10.14,12.56-10.14s12.77,4.03,12.77,10.14h-.08c-2.06,0-3.82-1.22-4.89-2.98-1.32-2.17-4.15-3.48-7.87-3.48-5,0-8.33,2.43-8.33,6.04,0,8.95,21.73,4.37,21.73,16.94,0,6.25-5.21,10.41-13.05,10.41s-13.4-4.23-13.4-10.55Z" style="fill: #ec6a2c;"/>
    <g>
      <path d="M75.09,15.12h0v6.32c2.78-4.63,7.56-7.25,13.73-7.25,6.71,0,11.8,3.32,13.88,8.87,2.64-5.83,8.17-9.1,15.48-8.86,7.97.26,14.22,6.98,14.22,14.95v16.66c0,2.39,1.93,4.32,4.32,4.32h.62v4.32h-1.47c-5.01,0-7.94-2.85-7.94-7.71v-16.3c0-6.52-5.25-11.92-11.77-11.93-7.42-.02-12.38,4.77-12.38,12.03v19.44c0,2.47-2,4.47-4.47,4.47h0v-24.06c0-7.17-4.71-11.88-11.8-11.88s-12.42,4.78-12.42,12.03v19.44c0,2.47-2,4.47-4.47,4.47h0V19.6c0-2.47,2-4.47,4.47-4.47Z" style="fill: #695ea3;"/>
      <path d="M142.04,34.79c0-11.72,8.56-20.59,19.98-20.59,7.56,0,13.65,3.86,16.97,9.95v-4.55c0-2.47,2-4.47,4.47-4.47h0v30.7c0,2.39,1.93,4.32,4.32,4.32h0c.34,0,.62.28.62.62v3.7h-1.47c-5.01,0-7.94-2.85-7.94-7.71v-1.31c-3.32,6.09-9.41,9.95-16.97,9.95-11.42,0-19.98-8.87-19.98-20.59ZM178.98,34.79c0-9.12-7.06-16.27-16.18-16.28-9.18,0-16.13,7.01-16.13,16.27s6.94,16.27,16.12,16.27,16.19-7.01,16.2-16.27Z" style="fill: #695ea3;"/>
      <path d="M195.19,3.24c0-2.2,2.06-3.74,4.25-3.09,1.21.36,2.15,1.46,2.29,2.71.22,2.04-1.32,3.62-3.3,3.62-1.77,0-3.24-1.39-3.24-3.24ZM200.66,15.12h0v34.86c0,2.47-2,4.47-4.47,4.47h0V19.6c0-2.47,2-4.47,4.47-4.47Z" style="fill: #695ea3;"/>
      <path d="M213.08,15.12h0c2.47,0,4.47,2,4.47,4.47v2.78c3.01-5.17,8.41-8.18,15.27-8.18,9.87,0,16.51,6.48,16.51,16.43v15.19c0,2.39,1.93,4.32,4.32,4.32h0c.34,0,.62.28.62.62v3.7h-1.54c-5.01,0-7.87-2.85-7.87-7.71v-14.81c0-8.1-5.32-13.42-13.34-13.42s-13.96,5.4-13.96,13.58v17.89c0,2.47-2,4.47-4.47,4.47h0V15.12Z" style="fill: #695ea3;"/>
      <path d="M258.51,43.66h.55c2.09,0,3.86,1.29,4.82,3.15,1.44,2.8,4.9,4.49,9.52,4.49,5.94,0,9.87-2.85,9.87-7.02,0-10.1-24.14-5.01-24.14-18.82,0-6.79,5.55-11.26,13.96-11.26s14.19,4.47,14.19,11.26h0c-2.21,0-4.33-1.13-5.39-3.07-1.39-2.55-4.61-4.11-8.88-4.11-5.55,0-9.26,2.7-9.26,6.71,0,9.95,24.14,4.86,24.14,18.82,0,6.94-5.78,11.57-14.5,11.57s-14.89-4.7-14.89-11.72Z" style="fill: #695ea3;"/>
    </g>
    <g>
      <path d="M22.85,100.8c-7.47,0-13.12-5.45-13.12-12.72,0-4.81,2.46-8.7,6.34-10.81H0c0-1.57,1.28-2.85,2.85-2.85h27.02c1.52,0,2.75-1.23,2.75-2.75h0c0-.22.18-.39.39-.39h2.36v.93c0,3.19-1.82,5.06-4.91,5.06h-.83c3.88,2.11,6.34,5.99,6.34,10.81,0,7.27-5.65,12.72-13.12,12.72ZM19.52,77.72c-2.76.74-5.78,3.72-6.55,6.47-2.1,7.44,2.89,13.66,9.88,13.66,5.9,0,10.37-4.42,10.37-10.27,0-6.96-6.24-11.87-13.7-9.86Z" style="fill: #695ea3;"/>
      <path d="M22.85,71.29c-7.47,0-13.12-5.7-13.12-13.22s5.65-13.26,13.12-13.26c.39,0,.83.05,1.18.1v23.39c5.41-.54,9.29-4.77,9.29-10.42,0-3.21-1.24-6.07-3.26-7.95-1.31-1.23-2.14-2.88-2.14-4.67h0c4.82,1.92,8.06,6.83,8.06,12.67,0,7.67-5.65,13.36-13.12,13.36ZM21.47,68.3v-20.49c-5.01.49-9.09,4.62-9.09,10.27s3.78,9.58,9.09,10.22Z" style="fill: #695ea3;"/>
    </g>
  </g>
</svg>