<?xml version="1.0" encoding="UTF-8"?><svg id="svg2" xmlns="http://www.w3.org/2000/svg" width="35.28mm" height="39.17mm" viewBox="0 0 100 111.03"><path d="M18.31,76.87v10.55h4.99v2.02h-7.32v-12.57h2.33Z" fill="#2f4d53"/><path d="M34.11,76.87v2h-6.29v3.16h5.99v2.08h-6.02v3.3h6.44v2.02h-8.73v-12.57h8.6Z" fill="#2f4d53"/><path d="M40.34,89.44v-12.57h5.89c2.39,0,3.59.98,3.59,2.93,0,1.43-.78,2.45-2.34,3.07,1.66.31,2.5,1.26,2.5,2.86,0,2.48-1.31,3.72-3.93,3.72h-5.7ZM45.95,87.42c1.03,0,1.55-.53,1.55-1.58,0-1.31-.77-1.96-2.31-1.96h-.7v-1.5c1.93-.32,2.9-1.13,2.9-2.43,0-.7-.43-1.05-1.3-1.05h-3.41v8.53h3.28Z" fill="#2f4d53"/><path d="M54.28,76.87v10.55h4.99v2.02h-7.32v-12.57h2.33Z" fill="#2f4d53"/><path d="M59.71,83.17c0-4.26,2.1-6.39,6.31-6.39s6.21,2.13,6.21,6.39-2.07,6.35-6.21,6.35-6.12-2.12-6.31-6.35ZM66.02,87.5c2.53,0,3.8-1.46,3.8-4.39s-1.27-4.32-3.8-4.32-3.89,1.44-3.89,4.32,1.3,4.39,3.89,4.39Z" fill="#2f4d53"/><path d="M84.45,88.86c-1.01.45-2.28.67-3.81.67-4.44,0-6.65-2.18-6.65-6.55,0-4.13,2.26-6.2,6.77-6.2,1.38,0,2.61.21,3.69.62v2.11c-1.08-.47-2.26-.7-3.52-.7-3.02,0-4.53,1.39-4.53,4.17,0,3.02,1.42,4.53,4.27,4.53.42,0,.9-.07,1.44-.21v-3.66h2.33v5.22Z" fill="#2f4d53"/><path d="M79.51,20.02c-1.94,2.48-3.86,4.97-5.84,7.42-.54.67-.61,1.22-.39,2.08.61,2.37,1.35,4.77,1.47,7.18.83,16.96-13.21,29.96-30.05,27.96-14.24-1.69-24.82-15.43-22.9-29.72,2.76-20.48,26.23-30.22,42.67-17.71,1.25.95,2.32,2.43,3.71,2.82,1.42.4,3.13-.23,4.71-.41.39-.04.77-.1,1.15-.15,2.03-.23,4.06-.46,6.37-.73-.42.58-.65.93-.91,1.26Z" fill="#34555b"/><path id="path32" d="M50,97.52c2.32,0,4.17,1.85,4.18,4.18.01,2.27-1.86,4.16-4.15,4.18-2.33.02-4.21-1.89-4.2-4.26,0-2.23,1.9-4.09,4.17-4.1" fill="#2f4d53"/><path id="path32-2" d="M35.93,97.52c2.32,0,4.17,1.85,4.18,4.18.01,2.27-1.86,4.16-4.15,4.18-2.33.02-4.21-1.89-4.2-4.26,0-2.23,1.9-4.09,4.17-4.1" fill="#2f4d53"/><path id="path32-3" d="M64.06,97.52c2.32,0,4.17,1.85,4.18,4.18.01,2.27-1.86,4.16-4.15,4.18-2.33.02-4.21-1.89-4.2-4.26,0-2.23,1.9-4.09,4.17-4.1" fill="#2f4d53"/></svg>