<?xml version="1.0" encoding="UTF-8"?><svg id="svg2" xmlns="http://www.w3.org/2000/svg" width="35.28mm" height="39.17mm" viewBox="0 0 100 111.03"><path d="M24.91,89.44v-12.57h2.33l6.64,9.16v-9.16h2.24v12.57h-2.33l-6.64-9.35v9.35h-2.24Z" fill="#2f4d53"/><path d="M38.31,83.17c0-4.26,2.1-6.39,6.31-6.39s6.21,2.13,6.21,6.39-2.07,6.35-6.21,6.35-6.12-2.12-6.31-6.35ZM44.62,87.5c2.53,0,3.8-1.46,3.8-4.39s-1.27-4.32-3.8-4.32-3.89,1.44-3.89,4.32,1.3,4.39,3.89,4.39Z" fill="#2f4d53"/><path d="M53.03,84.5v-7.63h2.33v7.63c0,2,1.03,3.01,3.08,3.01s3.08-1,3.08-3.01v-7.63h2.33v7.63c0,3.35-1.8,5.03-5.41,5.03s-5.41-1.68-5.41-5.03Z" fill="#2f4d53"/><path d="M66.26,88.91v-2.11c1.26.47,2.68.7,4.27.7,1.93,0,2.89-.64,2.89-1.93,0-.94-.59-1.41-1.78-1.41h-1.97c-2.57,0-3.86-1.17-3.86-3.52,0-2.58,1.83-3.87,5.49-3.87,1.41,0,2.74.21,4,.62v2.11c-1.26-.47-2.59-.7-4-.7-2.11,0-3.16.62-3.16,1.85,0,.94.51,1.41,1.53,1.41h1.97c2.74,0,4.1,1.17,4.1,3.52,0,2.64-1.74,3.96-5.22,3.96-1.59,0-3.01-.21-4.27-.62Z" fill="#2f4d53"/><path d="M2.42,105.42v-12.55h5.71c2.57,0,3.85,1.12,3.85,3.37,0,1.52-1,2.77-3,3.77l3.98,5.43h-2.94l-3.82-5.48v-1.06c2.23-.38,3.34-1.25,3.34-2.59,0-.93-.52-1.39-1.56-1.39h-3.19v10.5h-2.37Z" fill="#2f4d53"/><path d="M22.67,92.87v2h-6.29v3.16h5.99v2.08h-6.02v3.3h6.44v2.02h-8.73v-12.57h8.6Z" fill="#2f4d53"/><path d="M28.82,92.87v8.95c0,2.41-1.66,3.62-4.97,3.62v-2.02c1.76,0,2.64-.53,2.64-1.6v-8.95h2.33Z" fill="#2f4d53"/><path d="M31.02,99.17c0-4.26,2.1-6.39,6.31-6.39s6.21,2.13,6.21,6.39-2.07,6.35-6.21,6.35-6.12-2.12-6.31-6.35ZM37.33,103.5c2.53,0,3.8-1.46,3.8-4.39s-1.27-4.32-3.8-4.32-3.89,1.44-3.89,4.32,1.3,4.39,3.89,4.39Z" fill="#2f4d53"/><path d="M48.07,92.87v12.57h-2.33v-12.57h2.33Z" fill="#2f4d53"/><path d="M50.7,105.44v-12.57h2.33l6.64,9.16v-9.16h2.24v12.57h-2.33l-6.64-9.35v9.35h-2.24Z" fill="#2f4d53"/><path d="M64.55,105.44v-12.57h4.92c4.16,0,6.24,1.98,6.24,5.94,0,4.42-2.08,6.63-6.24,6.63h-4.92ZM69.47,103.42c2.61,0,3.91-1.54,3.91-4.61,0-2.61-1.3-3.92-3.91-3.92h-2.59v8.53h2.59Z" fill="#2f4d53"/><path d="M77.69,105.42v-12.55h5.71c2.57,0,3.85,1.12,3.85,3.37,0,1.52-1,2.77-3,3.77l3.98,5.43h-2.94l-3.82-5.48v-1.06c2.23-.38,3.34-1.25,3.34-2.59,0-.93-.52-1.39-1.56-1.39h-3.19v10.5h-2.37Z" fill="#2f4d53"/><path d="M97.94,92.87v2h-6.29v3.16h5.99v2.08h-6.02v3.3h6.44v2.02h-8.73v-12.57h8.6Z" fill="#2f4d53"/><path d="M49.41,29.51c2.89,1.11,5.34-.05,6.5-.63,1.7-.88,3.14-2.28,4.02-4,.91-1.7,1.3-3.57,1.15-5.46-.15-2.28-1.48-4.29-3.14-5.77-2.81-2.48-8.06-1.88-10.27,1.33-2.37,3.38-3.7,8.57-1.43,11.97.64.99,1.75,2.03,3.17,2.58Z" fill="#2f4d53"/><path d="M22.74,30.2l13.92,11.71c1.11.93,1.93,2.17,2.34,3.57l3.97,17.55c-.03.15-.07.35-.1.52h16.73c.75-3.81,2.8-17.04,4.07-18.1l8.28-8.69c4.66-3.71,10.86-9.76,12.17-15.31.04-1.44.03-2.91-.37-3.91-.37-1.01-1.04-1.48-2.3-1.21-1.24.29-3.13,2.5-5.12,4.36-4.02,3.76-6.05,6.44-12.46,10.27,0,0-7.18,3.17-8.43,3.74-2.02.77-6.21-.19-6.21-.19-3.12-1.08-4.99-2.31-4.99-2.31l-8.75-4.7c-5.51-2.35-10.23-5.33-13.43-8.33-1.59-1.48-3.09-3.24-4.07-3.47-1.01-.21-1.54.16-1.84.96-.32.79-.32,1.97-.29,3.11,1.04,4.42,3.15,7.48,6.87,10.43Z" fill="#2f4d53"/></svg>