<?xml version="1.0" encoding="UTF-8"?><svg id="svg2" xmlns="http://www.w3.org/2000/svg" width="35.28mm" height="39.17mm" viewBox="0 0 100 111.03"><g id="g10"><g id="g12"><path id="path30" d="M45.68,57.22c1.66.33,3.3.78,4.97.96,3.26.35,6.52.17,9.73-.49,1.12-.23,2.22-.7,3.22-1.26,2.15-1.18,4.22-2.49,6.33-3.74,1.28-.76,2.64-1.33,4.14-1.49,1.06-.11,1.91.31,2.33,1.14.18.36.18.64-.19.9-.8.57-1.57,1.18-2.29,1.86-.87.83-1.89,1.51-2.89,2.19-1.96,1.33-3.94,2.63-5.94,3.9-2.28,1.45-4.82,2.31-7.37,3.06-2.65.78-5.36,1.39-8.06,2-.67.15-1.41.11-2.11.05-3.53-.3-7.06-.61-10.59-.97-1.64-.17-3.25-.52-4.89-.66-1.15-.1-2.32-.05-3.47.05-3.31.29-6-2.1-5.94-5.42.03-1.93.97-3.4,2.6-4.4,1.26-.77,2.58-1.43,3.84-2.21,2.4-1.49,5.04-2.12,7.83-2.09,1.79.02,3.59.18,5.37.39,2.15.25,4.29.32,6.43,0,2.4-.37,4.8-.81,7.2-1.2.97-.16,1.85-.03,2.45.88.44.66.45,1.32-.08,1.9-.39.43-.86.8-1.35,1.12-2.27,1.49-4.8,2.3-7.46,2.72-1.26.2-2.52.42-3.77.64,0,.05-.02.11-.03.16" fill="#2f4d53"/><path id="path32" d="M54.8,7.74c3.18,0,5.72,2.53,5.73,5.73.01,3.12-2.56,5.7-5.69,5.73-3.19.03-5.77-2.59-5.77-5.84,0-3.06,2.6-5.61,5.72-5.62" fill="#2f4d53"/><path id="path34" d="M43.37,34.42c.03-3.2,2.58-5.7,5.78-5.67,3.16.03,5.73,2.65,5.68,5.79-.05,3.12-2.66,5.69-5.77,5.67-3.16-.02-5.73-2.62-5.69-5.78" fill="#2f4d53"/><path id="path36" d="M23.54,30.4c.01-3.18,2.6-5.74,5.75-5.71,3.15.04,5.69,2.58,5.71,5.71.01,3.14-2.59,5.74-5.74,5.74-3.17,0-5.73-2.57-5.72-5.75" fill="#2f4d53"/><path id="path38" d="M73.63,32.08c.05,2.87-2.21,5.65-5.53,5.75-3.3.1-5.93-2.51-5.93-5.72,0-3.15,2.59-5.71,5.76-5.72,3.13,0,5.69,2.56,5.7,5.69" fill="#2f4d53"/></g></g><path d="M24.43,89.44v-12.57h2.33l6.64,9.16v-9.16h2.24v12.57h-2.33l-6.64-9.35v9.35h-2.24Z" fill="#2f4d53"/><path d="M37.83,83.17c0-4.26,2.1-6.39,6.31-6.39s6.21,2.13,6.21,6.39-2.07,6.35-6.21,6.35-6.12-2.12-6.31-6.35ZM44.14,87.5c2.53,0,3.8-1.46,3.8-4.39s-1.27-4.32-3.8-4.32-3.89,1.44-3.89,4.32,1.3,4.39,3.89,4.39Z" fill="#2f4d53"/><path d="M52.55,84.5v-7.63h2.33v7.63c0,2,1.03,3.01,3.08,3.01s3.08-1,3.08-3.01v-7.63h2.33v7.63c0,3.35-1.8,5.03-5.41,5.03s-5.41-1.68-5.41-5.03Z" fill="#2f4d53"/><path d="M65.78,88.91v-2.11c1.26.47,2.68.7,4.27.7,1.93,0,2.89-.64,2.89-1.93,0-.94-.59-1.41-1.78-1.41h-1.97c-2.57,0-3.86-1.17-3.86-3.52,0-2.58,1.83-3.87,5.49-3.87,1.41,0,2.74.21,4,.62v2.11c-1.26-.47-2.59-.7-4-.7-2.11,0-3.16.62-3.16,1.85,0,.94.51,1.41,1.53,1.41h1.97c2.74,0,4.1,1.17,4.1,3.52,0,2.64-1.74,3.96-5.22,3.96-1.59,0-3.01-.21-4.27-.62Z" fill="#2f4d53"/><path d="M5.69,104.91v-2.11c1.26.47,2.68.7,4.27.7,1.93,0,2.89-.64,2.89-1.93,0-.94-.59-1.41-1.78-1.41h-1.97c-2.57,0-3.86-1.17-3.86-3.52,0-2.58,1.83-3.87,5.49-3.87,1.41,0,2.74.21,4,.62v2.11c-1.26-.47-2.59-.7-4-.7-2.11,0-3.16.62-3.16,1.85,0,.94.51,1.41,1.53,1.41h1.97c2.74,0,4.1,1.17,4.1,3.52,0,2.64-1.74,3.96-5.22,3.96-1.59,0-3.01-.21-4.27-.62Z" fill="#2f4d53"/><path d="M16.72,99.17c0-4.26,2.1-6.39,6.31-6.39s6.21,2.13,6.21,6.39-2.07,6.35-6.21,6.35-6.12-2.12-6.31-6.35ZM23.04,103.5c2.53,0,3.8-1.46,3.8-4.39s-1.27-4.32-3.8-4.32-3.89,1.44-3.89,4.32,1.3,4.39,3.89,4.39Z" fill="#2f4d53"/><path d="M31.45,100.5v-7.63h2.33v7.63c0,2,1.03,3.01,3.08,3.01s3.08-1,3.08-3.01v-7.63h2.33v7.63c0,3.35-1.8,5.03-5.41,5.03s-5.41-1.68-5.41-5.03Z" fill="#2f4d53"/><path d="M53.11,92.87v2.02h-3.6v10.55h-2.33v-10.55h-3.6v-2.02h9.54Z" fill="#2f4d53"/><path d="M63.03,92.87v2h-6.29v3.16h5.99v2.08h-6.02v3.3h6.44v2.02h-8.73v-12.57h8.6Z" fill="#2f4d53"/><path d="M65.31,105.44v-12.57h2.33l6.64,9.16v-9.16h2.24v12.57h-2.33l-6.64-9.35v9.35h-2.24Z" fill="#2f4d53"/><path d="M81.48,92.87v12.57h-2.33v-12.57h2.33Z" fill="#2f4d53"/><path d="M84.12,105.42v-12.55h5.71c2.57,0,3.85,1.12,3.85,3.37,0,1.52-1,2.77-3,3.77l3.98,5.43h-2.94l-3.82-5.48v-1.06c2.23-.38,3.34-1.25,3.34-2.59,0-.93-.52-1.39-1.56-1.39h-3.19v10.5h-2.37Z" fill="#2f4d53"/></svg>