<?xml version="1.0" encoding="UTF-8"?>
<svg id="PICTO" xmlns="http://www.w3.org/2000/svg" xmlns:xlink="http://www.w3.org/1999/xlink" viewBox="0 0 380 265.28">
  <defs>
    <clipPath id="clippath">
      <path d="M223.98,38.17c.27,2.77.5,5.54.7,8.33.23-.09.47-.18.7-.27-.44-2.69-.9-5.38-1.4-8.06ZM227.27,31.27c.45,4.62.8,9.27,1.07,13.93.4-.13.8-.25,1.2-.37-.68-4.54-1.43-9.06-2.28-13.56Z" style="fill: none;"/>
    </clipPath>
    <clipPath id="clippath-1">
      <path d="M155.04,227.29l1.98-.28c-.24-2.49-.45-5.02-.64-7.56-.84.34-1.7.65-2.55.96.38,2.33.79,4.63,1.21,6.89Z" style="fill: none;"/>
    </clipPath>
    <clipPath id="clippath-2">
      <path d="M144.64-2v238.01h237.36V-2h-237.36ZM155.04,227.29c-.42-2.26-.82-4.56-1.21-6.89.86-.3,1.71-.62,2.55-.96.19,2.54.39,5.07.64,7.56l-1.98.28ZM224.68,46.49c-.2-2.78-.43-5.56-.7-8.33.5,2.68.96,5.36,1.4,8.06-.23.09-.47.18-.7.27ZM228.35,45.2c-.27-4.66-.62-9.31-1.07-13.93.84,4.5,1.6,9.02,2.28,13.56-.4.12-.8.24-1.2.37Z" style="fill: none;"/>
    </clipPath>
  </defs>
  <g style="clip-path: url(#clippath);">
    <g>
      <path d="M315.86,86.97c-9.56-13.79-3.99-32.15,12.43-41,16.42-8.85,37.48-4.85,47.04,8.94,9.56,13.79,3.99,32.15-12.43,41-16.42,8.85-37.48,4.85-47.04-8.94Z" style="fill: #ec6a2c;"/>
      <path d="M303.5,39.51c-50.2-30.43-96.55-11.53-123.54,37.2-26.24,46.95-32.42,103.88-27.23,157.3-10.18-54.45-8.94-112.35,14.09-164.08C194.81,6.69,253.62-17.27,316.72,13.05c18.4,8.68,4.81,35.98-13.22,26.45h0Z" style="fill: #ec6a2c;"/>
      <path d="M377.72,127.77c-6.32,68.82-74,112.28-138.16,86.84,42.38,8.81,87.41-10.05,102.61-50.04,4.77-11.92,6.81-25.45,5.99-37.43-.56-8.18,5.61-15.27,13.79-15.83,9.13-.72,16.86,7.38,15.77,16.45h0Z" style="fill: #ec6a2c;"/>
      <path d="M300.96,96.47c-8.49-12.25-3.55-28.56,11.04-36.43,14.59-7.87,33.3-4.31,41.79,7.95,8.49,12.25,3.55,28.56-11.04,36.43-14.59,7.87-33.3,4.31-41.79-7.95Z" style="fill: #ec6a2c; opacity: .3;"/>
      <path d="M289.98,54.3c-44.6-27.04-85.78-10.24-109.76,33.05-23.32,41.71-28.8,92.3-24.19,139.75-9.04-48.37-7.94-99.82,12.51-145.77C193.41,25.15,245.66,3.86,301.72,30.8c16.34,7.71,4.27,31.96-11.74,23.5h0Z" style="fill: #ec6a2c; opacity: .3;"/>
      <path d="M355.92,132.72c-5.61,61.14-65.74,99.76-122.75,77.16,37.65,7.82,77.66-8.93,91.16-44.46,4.24-10.59,6.05-22.61,5.32-33.25-.5-7.27,4.99-13.57,12.26-14.06,8.11-.64,14.98,6.56,14.01,14.62h0Z" style="fill: #ec6a2c; opacity: .3;"/>
    </g>
  </g>
  <g style="clip-path: url(#clippath-1);">
    <g>
      <path d="M315.86,86.97c-9.56-13.79-3.99-32.15,12.43-41,16.42-8.85,37.48-4.85,47.04,8.94,9.56,13.79,3.99,32.15-12.43,41-16.42,8.85-37.48,4.85-47.04-8.94Z" style="fill: #ec6a2c;"/>
      <path d="M303.5,39.51c-50.2-30.43-96.55-11.53-123.54,37.2-26.24,46.95-32.42,103.88-27.23,157.3-10.18-54.45-8.94-112.35,14.09-164.08C194.81,6.69,253.62-17.27,316.72,13.05c18.4,8.68,4.81,35.98-13.22,26.45h0Z" style="fill: #ec6a2c;"/>
      <path d="M377.72,127.77c-6.32,68.82-74,112.28-138.16,86.84,42.38,8.81,87.41-10.05,102.61-50.04,4.77-11.92,6.81-25.45,5.99-37.43-.56-8.18,5.61-15.27,13.79-15.83,9.13-.72,16.86,7.38,15.77,16.45h0Z" style="fill: #ec6a2c;"/>
      <path d="M300.96,96.47c-8.49-12.25-3.55-28.56,11.04-36.43,14.59-7.87,33.3-4.31,41.79,7.95,8.49,12.25,3.55,28.56-11.04,36.43-14.59,7.87-33.3,4.31-41.79-7.95Z" style="fill: #ec6a2c; opacity: .3;"/>
      <path d="M289.98,54.3c-44.6-27.04-85.78-10.24-109.76,33.05-23.32,41.71-28.8,92.3-24.19,139.75-9.04-48.37-7.94-99.82,12.51-145.77C193.41,25.15,245.66,3.86,301.72,30.8c16.34,7.71,4.27,31.96-11.74,23.5h0Z" style="fill: #ec6a2c; opacity: .3;"/>
      <path d="M355.92,132.72c-5.61,61.14-65.74,99.76-122.75,77.16,37.65,7.82,77.66-8.93,91.16-44.46,4.24-10.59,6.05-22.61,5.32-33.25-.5-7.27,4.99-13.57,12.26-14.06,8.11-.64,14.98,6.56,14.01,14.62h0Z" style="fill: #ec6a2c; opacity: .3;"/>
    </g>
  </g>
  <g>
    <path d="M64.14,178.31c9.56,13.79,3.99,32.15-12.43,41-16.42,8.85-37.48,4.85-47.04-8.94-9.56-13.79-3.99-32.15,12.43-41,16.42-8.85,37.48-4.85,47.04,8.94Z" style="fill: #695ea3;"/>
    <path d="M76.5,225.77c50.2,30.43,96.55,11.53,123.54-37.2,26.24-46.95,32.42-103.88,27.23-157.3,10.18,54.45,8.94,112.35-14.09,164.08-28,63.25-86.81,87.2-149.91,56.88-18.4-8.68-4.81-35.98,13.22-26.45h0Z" style="fill: #695ea3;"/>
    <path d="M2.28,137.51C8.6,68.69,76.28,25.22,140.44,50.66c-42.38-8.81-87.41,10.05-102.61,50.04-4.77,11.92-6.81,25.45-5.99,37.43.56,8.18-5.61,15.27-13.79,15.83-9.13.72-16.86-7.38-15.77-16.45h0Z" style="fill: #695ea3;"/>
    <path d="M79.04,168.8c8.49,12.25,3.55,28.56-11.04,36.43-14.59,7.87-33.3,4.31-41.79-7.95-8.49-12.25-3.55-28.56,11.04-36.43,14.59-7.87,33.3-4.31,41.79,7.95Z" style="fill: #695ea3; opacity: .3;"/>
    <path d="M90.02,210.97c44.6,27.04,85.78,10.24,109.76-33.05,23.32-41.71,28.8-92.3,24.19-139.75,9.04,48.37,7.94,99.82-12.51,145.77-24.87,56.19-77.13,77.47-133.19,50.54-16.34-7.71-4.27-31.96,11.74-23.5h0Z" style="fill: #695ea3; opacity: .3;"/>
    <path d="M24.08,132.55c5.61-61.14,65.74-99.76,122.75-77.16-37.65-7.82-77.66,8.93-91.16,44.46-4.24,10.59-6.05,22.61-5.32,33.25.5,7.27-4.99,13.57-12.26,14.06-8.11.64-14.98-6.56-14.01-14.62h0Z" style="fill: #695ea3; opacity: .3;"/>
  </g>
  <g style="clip-path: url(#clippath-2);">
    <g>
      <path d="M315.86,86.97c-9.56-13.79-3.99-32.15,12.43-41,16.42-8.85,37.48-4.85,47.04,8.94,9.56,13.79,3.99,32.15-12.43,41-16.42,8.85-37.48,4.85-47.04-8.94Z" style="fill: #ec6a2c;"/>
      <path d="M303.5,39.51c-50.2-30.43-96.55-11.53-123.54,37.2-26.24,46.95-32.42,103.88-27.23,157.3-10.18-54.45-8.94-112.35,14.09-164.08C194.81,6.69,253.62-17.27,316.72,13.05c18.4,8.68,4.81,35.98-13.22,26.45h0Z" style="fill: #ec6a2c;"/>
      <path d="M377.72,127.77c-6.32,68.82-74,112.28-138.16,86.84,42.38,8.81,87.41-10.05,102.61-50.04,4.77-11.92,6.81-25.45,5.99-37.43-.56-8.18,5.61-15.27,13.79-15.83,9.13-.72,16.86,7.38,15.77,16.45h0Z" style="fill: #ec6a2c;"/>
      <path d="M300.96,96.47c-8.49-12.25-3.55-28.56,11.04-36.43,14.59-7.87,33.3-4.31,41.79,7.95,8.49,12.25,3.55,28.56-11.04,36.43-14.59,7.87-33.3,4.31-41.79-7.95Z" style="fill: #ec6a2c; opacity: .3;"/>
      <path d="M289.98,54.3c-44.6-27.04-85.78-10.24-109.76,33.05-23.32,41.71-28.8,92.3-24.19,139.75-9.04-48.37-7.94-99.82,12.51-145.77C193.41,25.15,245.66,3.86,301.72,30.8c16.34,7.71,4.27,31.96-11.74,23.5h0Z" style="fill: #ec6a2c; opacity: .3;"/>
      <path d="M355.92,132.72c-5.61,61.14-65.74,99.76-122.75,77.16,37.65,7.82,77.66-8.93,91.16-44.46,4.24-10.59,6.05-22.61,5.32-33.25-.5-7.27,4.99-13.57,12.26-14.06,8.11-.64,14.98,6.56,14.01,14.62h0Z" style="fill: #ec6a2c; opacity: .3;"/>
    </g>
  </g>
</svg>